<svg xmlns="http://www.w3.org/2000/svg" viewBox="0 0 1440 240">
            <path fill="#ea4c89" fill-opacity="1" d="M0,224L24,234.7C48,245,96,267,144,250.7C192,235,240,181,288,176C336,171,384,213,432,192C480,171,528,85,576,85.3C624,85,672,171,720,192C768,213,816,171,864,138.7C912,107,960,85,1008,101.3C1056,117,1104,171,1152,181.3C1200,192,1248,160,1296,170.7C1344,181,1392,235,1416,261.3L1440,288L1440,320L1416,320C1392,320,1344,320,1296,320C1248,320,1200,320,1152,320C1104,320,1056,320,1008,320C960,320,912,320,864,320C816,320,768,320,720,320C672,320,624,320,576,320C528,320,480,320,432,320C384,320,336,320,288,320C240,320,192,320,144,320C96,320,48,320,24,320L0,320Z"></path>
          </svg>